<svg xmlns="http://www.w3.org/2000/svg" width="337.49" height="179.85" viewBox="0 0 337.49 179.85">
  <title>logo.svg</title>
  <g id="06634a1c-f8b7-44b2-b6e9-b777a86f6cd0" data-name="圖層 2">
    <g>
      <g>
        <g>
          <path d="M126.82,57.32V96.95c0,8,21,20.28,42.73,20.28s43.75-11.9,43.9-19.9h1.37v-40Z" style="fill: #f9f7f7"/>
          <path d="M240.8,38.14,172.7,2.46c-2.7-1.47-4.29-1.47-7,0L97.63,38.14c-1.79,1.79-1.79,11.27,0,13.06l68.09,35.68a6.78,6.78,0,0,0,7,0L240.8,51.2C242.58,49.41,242.58,39.93,240.8,38.14Z" style="fill: #545454"/>
          <path d="M172.7,80.8a6.78,6.78,0,0,1-7,0L97.63,45.12a4.94,4.94,0,0,1,0-7L165.72,2.46c2.7-1.47,4.28-1.47,7,0L240.8,38.14a4.94,4.94,0,0,1,0,7Z" style="fill: #f9f7f7"/>
        </g>
        <rect x="105.82" y="45.32" width="4" height="67" style="fill: #f9f7f7"/>
        <circle cx="107.07" cy="111.69" r="4.89" style="fill: #f9f7f7"/>
      </g>
      <path d="M304.39,43a23.78,23.78,0,0,1,3.38-6.82,13.52,13.52,0,0,1,5.44-4.37,12.06,12.06,0,0,1,6.49-.91,13.6,13.6,0,0,1,6.44,2.81,15.61,15.61,0,0,1,5.1,6.57,16.47,16.47,0,0,1,1.17,8.2,15.3,15.3,0,0,1-3.1,7.73,8.5,8.5,0,0,1-5.38,3.43,6.79,6.79,0,0,1-5.55-1.19,4.13,4.13,0,0,1-1.65-2.4,3,3,0,0,1,.6-2.57A2.92,2.92,0,0,1,319,52.32a1.91,1.91,0,0,1,1.67.33,2.49,2.49,0,0,1,.79,2.07q0,1.86.44,2.21a2.85,2.85,0,0,0,3,.2,7.32,7.32,0,0,0,3.1-2.47,13.13,13.13,0,0,0,2.65-6.61,14,14,0,0,0-1-7.06,13.71,13.71,0,0,0-4.47-5.72A12.14,12.14,0,0,0,320.22,33a8.94,8.94,0,0,0-4.89.25,7.74,7.74,0,0,0-3.7,2.66,15.74,15.74,0,0,0-3.07,7.38,79.37,79.37,0,0,0-.05,13.84q.42,9.14.2,20.07A56.71,56.71,0,0,1,307.11,90,26.06,26.06,0,0,1,302.69,99a17.36,17.36,0,0,1-15.76,7.31,20.38,20.38,0,0,1-2.35,4.18,15.14,15.14,0,0,1-5.86,4.7,14.55,14.55,0,0,1-7.17,1.33,12.08,12.08,0,0,1-6.58-2.46,14.18,14.18,0,0,1-5.58-10.56,17.07,17.07,0,0,1,3.52-12.23,8.84,8.84,0,0,1,5-3.45,5.76,5.76,0,0,1,5.07.9,4.11,4.11,0,0,1,1.74,2.55,3.55,3.55,0,0,1-.82,2.8q-1.61,2.13-3.58.63a1.71,1.71,0,0,1-.66-1.81q.18-1.74-.6-2.33a2.49,2.49,0,0,0-2.4-.23,6.16,6.16,0,0,0-2.84,2.29,13.75,13.75,0,0,0-2.6,6.6,16.35,16.35,0,0,0,.7,7.47,11.39,11.39,0,0,0,3.86,5.62,10.3,10.3,0,0,0,8,2.05,10.76,10.76,0,0,0,7.25-4.34,17,17,0,0,0,3.17-6.82,54.28,54.28,0,0,0,.6-11.39q0-6.31.19-14.19t.58-12.33q.8-10.09,5-15.58a15.51,15.51,0,0,1,5.51-4.63A25.11,25.11,0,0,1,304.39,43Zm-.47,2.34A11.85,11.85,0,0,0,295.09,50a12.82,12.82,0,0,0-2,4.34,43.36,43.36,0,0,0-1.1,7.86q-.37,5.23-.48,17a108.21,108.21,0,0,1-.8,14.18,58.8,58.8,0,0,1-2.81,11.34,13.26,13.26,0,0,0,9.69-5.55,16.37,16.37,0,0,0,2.53-5.43,49.06,49.06,0,0,0,1.43-8.83q.48-5.47.49-16.25Q302.43,52,303.92,45.33Z" style="fill: #fff"/>
      <path d="M42.31,45.12a15.5,15.5,0,0,1,5.52,4.63q4.17,5.49,5,15.58.36,4.46.58,12.33t.19,14.19a54.07,54.07,0,0,0,.6,11.39,17,17,0,0,0,3.17,6.82,10.77,10.77,0,0,0,7.25,4.34,10.3,10.3,0,0,0,8-2.05,11.38,11.38,0,0,0,3.86-5.62,16.34,16.34,0,0,0,.7-7.47,13.75,13.75,0,0,0-2.6-6.6,6.16,6.16,0,0,0-2.84-2.29,2.49,2.49,0,0,0-2.4.23q-.78.59-.6,2.33a1.71,1.71,0,0,1-.67,1.81q-2,1.5-3.58-.63a3.55,3.55,0,0,1-.82-2.8,4.11,4.11,0,0,1,1.74-2.55,5.77,5.77,0,0,1,5.07-.9,8.84,8.84,0,0,1,5,3.45A17.07,17.07,0,0,1,79,103.52a14.19,14.19,0,0,1-5.58,10.56,12.08,12.08,0,0,1-6.58,2.46,14.56,14.56,0,0,1-7.18-1.33,15.15,15.15,0,0,1-5.85-4.7,20.32,20.32,0,0,1-2.35-4.18A17.36,17.36,0,0,1,35.73,99,26.06,26.06,0,0,1,31.31,90a56.79,56.79,0,0,1-1.6-12.75q-.21-10.94.2-20.07a79.38,79.38,0,0,0-.05-13.84,15.75,15.75,0,0,0-3.07-7.38,7.74,7.74,0,0,0-3.7-2.66A8.94,8.94,0,0,0,18.21,33a12.14,12.14,0,0,0-4.88,2.28A13.7,13.7,0,0,0,8.85,41a14,14,0,0,0-1,7.06,13.13,13.13,0,0,0,2.65,6.61,7.32,7.32,0,0,0,3.1,2.47,2.85,2.85,0,0,0,3-.2q.47-.35.44-2.21a2.5,2.5,0,0,1,.79-2.07,1.91,1.91,0,0,1,1.67-.33,2.92,2.92,0,0,1,1.65,1.15,3,3,0,0,1,.6,2.57A4.14,4.14,0,0,1,20,58.43a6.78,6.78,0,0,1-5.55,1.19,8.51,8.51,0,0,1-5.38-3.43A15.31,15.31,0,0,1,6,48.46a16.48,16.48,0,0,1,1.17-8.2,15.63,15.63,0,0,1,5.1-6.57,13.6,13.6,0,0,1,6.44-2.81,12.06,12.06,0,0,1,6.49.91,13.53,13.53,0,0,1,5.44,4.37A23.82,23.82,0,0,1,34,43,25.09,25.09,0,0,1,42.31,45.12ZM36.42,68.62q0,10.77.49,16.25a49,49,0,0,0,1.44,8.83,16.38,16.38,0,0,0,2.53,5.43,13.26,13.26,0,0,0,9.68,5.55,58.78,58.78,0,0,1-2.81-11.34A108.22,108.22,0,0,1,47,79.16q-.1-11.76-.48-17a43.34,43.34,0,0,0-1.1-7.86,12.79,12.79,0,0,0-2-4.34,11.85,11.85,0,0,0-8.83-4.65Q36,52,36.42,68.62Z" style="fill: #fff"/>
    </g>
    <g>
      <path d="M17.69,166.21h5.83v3H17.69v6h-3v-6H8.62v-3H14.7v-2.52H9.88V151.05H14.7v-2.34H9.12V145.8H14.7v-3.67h3v3.67h5.36v2.92H17.69v2.34h5v12.63h-5Zm-5.4-10h2.77v-2.7H12.29Zm0,5.08h2.77V158.5H12.29Zm7.88-7.77H17.33v2.7h2.84Zm0,5H17.33v2.74h2.84ZM34,149.83v2.77h6.84v19.11c0,1.44-.22,2.34-1.08,2.88a8.73,8.73,0,0,1-3.89.54,11.45,11.45,0,0,0-.83-3c1,0,1.94,0,2.27,0s.43-.11.43-.47v-4.39H34v7.59H31v-7.59H27.37v7.85h-3V152.6H31v-2.77H23.77v-3H31v-4.75h3v4.75h5a22.73,22.73,0,0,0-3.89-3.28l1.84-1.55a24,24,0,0,1,4.25,3.38l-1.62,1.44h2.09v3Zm-6.62,5.65v3.06H31v-3.06Zm3.67,9v-3.17H27.37v3.17Zm3-9v3.06h3.74v-3.06Zm3.74,9v-3.17H34v3.17Z" style="fill: #fff"/>
      <path d="M56.78,143.31a61,61,0,0,1-3.67,7.56V175.1H49.76V156a37.44,37.44,0,0,1-3.35,3.92,26.77,26.77,0,0,0-2-3.46,39.76,39.76,0,0,0,9.07-14.22Zm20.81,25.92v3.53H55.45v-3.53Zm-1.51-17.67H57.47V148H76.08Z" style="fill: #fff"/>
      <path d="M99.87,155.55c2.45,7.49,7,13.57,13.79,16.41a13.25,13.25,0,0,0-2.48,3.13c-6.73-3.13-11.09-9-13.89-16.59A24.9,24.9,0,0,1,83.39,175.1a11.67,11.67,0,0,0-2.56-2.81c8.57-3.74,12.06-10.22,13.5-16.74H81.55V152.1H94.94a90.26,90.26,0,0,0,.43-9.93H99a90.67,90.67,0,0,1-.5,9.93H113v3.46Z" style="fill: #fff"/>
      <path d="M149.23,168.36h-14v3.46c0,1.58-.36,2.38-1.62,2.81s-3.13.47-5.94.47a11.87,11.87,0,0,0-1.08-2.84c2,.07,4.07.07,4.61.07s.76-.14.76-.61v-3.35H117.19v-2.74H132v-1.3a34.1,34.1,0,0,0,4.86-2.45H123.92v-2.45h16.31l.72-.18,1.91,1.73a37,37,0,0,1-7.63,4.36v.29h14Zm-28.15-6.59h-3.17V154.9h2.74L120,144.25a67.33,67.33,0,0,0,7.05-1.84l1.44,2a32.45,32.45,0,0,1-5.29,1.4l.11,1.44h4.93v2.16h-4.82l.11,1.66h4.86v2.12a20.78,20.78,0,0,0,3-1.69,25.38,25.38,0,0,0-2.34-1.3l1.62-1.4c.79.4,1.69.86,2.52,1.37a10.48,10.48,0,0,0,1.62-1.76l2.27.72a18.42,18.42,0,0,1-2,2.2,18.33,18.33,0,0,1,2.38,1.84l-1.69,1.55a17.08,17.08,0,0,0-2.41-1.91,27.74,27.74,0,0,1-3.24,2.12h12.56c0-.54.11-1.08.18-1.66h-4.79v-2.2H143l.14-1.66h-4.9v-2.16h5l.07-1.62h-5.29v-2.2h8.57c-.18,3.64-.5,8.24-.79,11.48h2.74v6.88H145.3v-4.36H121.08Zm2.7-6.87h6.16a10.51,10.51,0,0,0-1.69-1.66h-4.54Zm11.91-6.62a13.75,13.75,0,0,0-2.23-1.69,21.22,21.22,0,0,1-3.1,2,16.48,16.48,0,0,0-1.84-1.55,15.83,15.83,0,0,0,3-1.66,19.57,19.57,0,0,0-2.27-1.19l1.62-1.4c.76.36,1.62.79,2.41,1.26a10.28,10.28,0,0,0,1.51-1.58l2.27.61a16.75,16.75,0,0,1-1.87,2.12,17.49,17.49,0,0,1,2.2,1.58Z" style="fill: #fff"/>
      <path d="M163.38,163.4c-.47-1.22-1.48-3.35-2.37-5.18v16.92h-3.06V159a39.13,39.13,0,0,1-4,9.83,16.31,16.31,0,0,0-1.62-3.28c2.09-2.92,4.07-8.31,5-13h-3.89v-3.1h4.46v-7.31H161v7.34h3.82v3.06H161v1.3c.9,1.26,3.71,5.94,4.36,7.06Zm18-5.33a27.4,27.4,0,0,1-4.21,8.67,21.17,21.17,0,0,0,8.86,5.18,13.35,13.35,0,0,0-2.27,3A22.61,22.61,0,0,1,175,169.3a28,28,0,0,1-8.82,5.87,11.82,11.82,0,0,0-2.12-2.56,25.61,25.61,0,0,0,8.78-5.79,32.66,32.66,0,0,1-4.39-8.32l-1.8,1.69a14,14,0,0,0-2.3-2.05,26,26,0,0,0,5.9-7.27l3,1.37a33.61,33.61,0,0,1-4.28,5.69l2.3-.58a25,25,0,0,0,3.71,6.91,21,21,0,0,0,3.28-7Zm4-7.7H165.72v-3.1h8.57a20.51,20.51,0,0,0-2.56-4.25l2.92-1.15a18.32,18.32,0,0,1,2.88,4.39l-2.3,1h10.15Zm-6.19.25a39.81,39.81,0,0,1,6.26,7.27L183,160a37.57,37.57,0,0,0-6.08-7.56Z" style="fill: #fff"/>
      <path d="M217.2,156.16A25.61,25.61,0,0,1,210.5,168a30.57,30.57,0,0,0,11.12,4,13.06,13.06,0,0,0-2.16,3.06,30.59,30.59,0,0,1-11.59-4.9,33.71,33.71,0,0,1-10.22,5,14.27,14.27,0,0,0-1.91-2.88,27.88,27.88,0,0,0,9.47-4.25,27.76,27.76,0,0,1-5.54-7.74c-1.62,5-4.17,10-8.28,13.64a9.89,9.89,0,0,0-2.88-2.3c6.33-5.15,8.82-13.86,9.79-20.59h-8.5v-3.24h8.93c.25-2.63.29-4.68.36-5.72h3.46c-.07,1.22-.14,3.2-.4,5.72h18.54v3.24h-19c-.18,1.33-.43,2.81-.72,4.28h13.32l.65-.14Zm-15,2.41a21.65,21.65,0,0,0,5.58,7.38,21.36,21.36,0,0,0,5-7.38Z" style="fill: #fff"/>
      <path d="M247.18,147.52a3.85,3.85,0,0,1-.07.86c1.94,2,5.79,3.2,10.55,3.49a9.76,9.76,0,0,0-1.8,2.74c-4.1-.58-7.38-1.87-9.65-4-1.3,1.66-4.14,3.2-10.33,4.07a9.48,9.48,0,0,0-1.69-2.48H225v-2.63h10.44V152c7.81-1,8.64-3,8.64-4.57v-.47h-3a16.88,16.88,0,0,1-2.63,3.35A14.62,14.62,0,0,0,236,148.6a14.86,14.86,0,0,0,4.14-6.62l3,.65c-.22.61-.43,1.19-.68,1.8h11.23l.47-.14,2.3.76a33,33,0,0,1-3.13,5.33l-2.63-.94a27.91,27.91,0,0,0,1.51-2.48h-5Zm-.29,21.81A93.36,93.36,0,0,1,257,173.26l-3,1.84a70.25,70.25,0,0,0-9.68-4.07l2.09-1.69H235.67l3,1.37a49.4,49.4,0,0,1-11,4.5,27.07,27.07,0,0,0-2.48-2.52,39,39,0,0,0,10.37-3.35h-5.79V154.87H253.2v14.47Zm-12.27-22.71H225.8V144.1h8.82ZM233,159h16.88V157H233Zm0,4h16.88v-2H233Zm0,4.14h16.88v-2.09H233Z" style="fill: #fff"/>
      <path d="M266.3,159.8c-.72,4-2.23,9.07-4.28,11.66a21,21,0,0,0-1.58-3.89,24.07,24.07,0,0,0,3.49-8.64Zm4.82-.79c.76,1,3.35,5.76,3.89,6.88l-2.34,2.56a75.22,75.22,0,0,0-3-7.34v14.07h-3.13v-18h-5.58v-3.13h5.58V142.16h3.13v11.91h5.62v3.13h-5.62v2.88Zm-8.24-5.9a37.29,37.29,0,0,0-1.8-8.1l2.38-.61a33.68,33.68,0,0,1,2,8.06Zm12.67-8.17c-.94,2.74-2,6.08-3,8.13l-2.12-.65a62.72,62.72,0,0,0,2.16-8.13Zm13.93,20.3v9.93h-3.13v-9.36l-10.65,1.94-.54-3.1,11.19-2V142.16h3.13v19.91l4-.68.47,3.06ZM281.75,160a27.51,27.51,0,0,0-5.9-4.32l1.58-2.41a31.2,31.2,0,0,1,6,4.07Zm1.44-8.67a26,26,0,0,0-5.62-4.64l1.69-2.27a29,29,0,0,1,5.69,4.36Z" style="fill: #fff"/>
      <path d="M302.66,148v8.46c0,5.58-.5,13.61-3.64,18.75a11.62,11.62,0,0,0-2.66-1.91c2.88-4.82,3.13-11.77,3.13-16.85V145.11h13.79c-.4-.76-.83-1.48-1.22-2.12l3.13-.9a16.15,16.15,0,0,1,1.76,3h12.31V148Zm26.85,23.11H317.46V175h-3.17V171.1H302.88v-2.74h11.41v-2.2h-8.71v-11h8.71v-1.94h-9.9v-2.59h9.9v-2h3.17v2h10.91v2.59H317.46v1.94h9.14v11h-9.14v2.2h12.06Zm-21-11.48h5.76v-2.23h-5.76Zm5.76,4.39v-2.34h-5.76V164Zm3.17-6.62v2.23h6v-2.23Zm6,4.28h-6V164h6Z" style="fill: #fff"/>
    </g>
  </g>
</svg>
