<svg xmlns="http://www.w3.org/2000/svg" viewBox="0 0 560 260"><defs><style>.cls-1{fill:#fff;}.cls-2{fill:#333;}.cls-3{fill:#f4ce21;}.cls-4{font-size:36px;fill:#231815;font-family:MS-PGothic, MS PGothic;}</style></defs><title>logo</title><g id="圖層_1" data-name="圖層 1"><rect class="cls-1" width="560.2" height="260.2"/></g><g id="圖層_2" data-name="圖層 2"><path class="cls-2" d="M242,102v39.62c0,8,21,20.28,42.73,20.28s43.75-11.9,43.9-19.9H330V102Z"/><path class="cls-3" d="M356,82.82,287.89,47.13c-2.7-1.47-4.29-1.47-7,0L212.81,82.82c-1.79,1.79-1.79,11.27,0,13.06l68.09,35.68a6.78,6.78,0,0,0,7,0L356,95.88C357.77,94.09,357.77,84.6,356,82.82Z"/><path class="cls-2" d="M287.89,125.48a6.78,6.78,0,0,1-7,0L212.81,89.8a4.94,4.94,0,0,1,0-7l68.09-35.68c2.7-1.47,4.28-1.47,7,0L356,82.82a4.94,4.94,0,0,1,0,7Z"/><rect class="cls-2" x="221" y="90" width="4" height="67"/><circle class="cls-2" cx="222.26" cy="156.37" r="4.89"/><path class="cls-2" d="M419.57,87.67A23.78,23.78,0,0,1,423,80.84a13.52,13.52,0,0,1,5.44-4.37,12.06,12.06,0,0,1,6.49-.91,13.6,13.6,0,0,1,6.44,2.81,15.61,15.61,0,0,1,5.1,6.57,16.47,16.47,0,0,1,1.17,8.2,15.3,15.3,0,0,1-3.1,7.73,8.5,8.5,0,0,1-5.38,3.43,6.79,6.79,0,0,1-5.55-1.19,4.13,4.13,0,0,1-1.65-2.4,3,3,0,0,1,.6-2.57A2.92,2.92,0,0,1,434.17,97a1.91,1.91,0,0,1,1.67.33,2.49,2.49,0,0,1,.79,2.07q0,1.86.44,2.21a2.85,2.85,0,0,0,3,.2,7.32,7.32,0,0,0,3.1-2.47,13.13,13.13,0,0,0,2.65-6.61,14,14,0,0,0-1-7.06A13.71,13.71,0,0,0,440.29,80a12.14,12.14,0,0,0-4.88-2.28,8.94,8.94,0,0,0-4.89.25,7.74,7.74,0,0,0-3.7,2.66A15.74,15.74,0,0,0,423.75,88a79.37,79.37,0,0,0-.05,13.84q.42,9.14.2,20.07a56.71,56.71,0,0,1-1.59,12.75,26.06,26.06,0,0,1-4.42,9.05A17.36,17.36,0,0,1,402.12,151a20.38,20.38,0,0,1-2.35,4.18,15.14,15.14,0,0,1-5.86,4.7,14.55,14.55,0,0,1-7.17,1.33,12.08,12.08,0,0,1-6.58-2.46,14.18,14.18,0,0,1-5.58-10.56A17.07,17.07,0,0,1,378.1,136a8.84,8.84,0,0,1,5-3.45,5.76,5.76,0,0,1,5.07.9,4.11,4.11,0,0,1,1.74,2.55,3.55,3.55,0,0,1-.82,2.8q-1.61,2.13-3.58.63a1.71,1.71,0,0,1-.66-1.81q.18-1.74-.6-2.33a2.49,2.49,0,0,0-2.4-.23,6.16,6.16,0,0,0-2.84,2.29,13.75,13.75,0,0,0-2.6,6.6,16.35,16.35,0,0,0,.7,7.47A11.39,11.39,0,0,0,381,157a10.3,10.3,0,0,0,8,2.05,10.76,10.76,0,0,0,7.25-4.34,17,17,0,0,0,3.17-6.82,54.28,54.28,0,0,0,.6-11.39q0-6.31.19-14.19t.58-12.33q.8-10.09,5-15.58a15.51,15.51,0,0,1,5.51-4.63A25.11,25.11,0,0,1,419.57,87.67ZM419.11,90a11.85,11.85,0,0,0-8.83,4.65,12.82,12.82,0,0,0-2,4.34,43.36,43.36,0,0,0-1.1,7.86q-.37,5.23-.48,17a108.21,108.21,0,0,1-.8,14.18,58.8,58.8,0,0,1-2.81,11.34,13.26,13.26,0,0,0,9.69-5.55,16.37,16.37,0,0,0,2.53-5.43,49.06,49.06,0,0,0,1.43-8.83q.48-5.47.49-16.25Q417.61,96.71,419.11,90Z"/><path class="cls-2" d="M157.49,89.8A15.5,15.5,0,0,1,163,94.43q4.17,5.49,5,15.58.36,4.46.58,12.33t.19,14.19a54.07,54.07,0,0,0,.6,11.39,17,17,0,0,0,3.17,6.82,10.77,10.77,0,0,0,7.25,4.34,10.3,10.3,0,0,0,8-2.05,11.38,11.38,0,0,0,3.86-5.62,16.34,16.34,0,0,0,.7-7.47,13.75,13.75,0,0,0-2.6-6.6,6.16,6.16,0,0,0-2.84-2.29,2.49,2.49,0,0,0-2.4.23q-.78.59-.6,2.33a1.71,1.71,0,0,1-.67,1.81q-2,1.5-3.58-.63a3.55,3.55,0,0,1-.82-2.8,4.11,4.11,0,0,1,1.74-2.55,5.77,5.77,0,0,1,5.07-.9,8.84,8.84,0,0,1,5,3.45,17.07,17.07,0,0,1,3.52,12.23,14.19,14.19,0,0,1-5.58,10.56,12.08,12.08,0,0,1-6.58,2.46,14.56,14.56,0,0,1-7.18-1.33,15.15,15.15,0,0,1-5.85-4.7,20.32,20.32,0,0,1-2.35-4.18,17.36,17.36,0,0,1-15.76-7.31,26.06,26.06,0,0,1-4.42-9.05,56.79,56.79,0,0,1-1.6-12.75q-.21-10.94.2-20.07A79.38,79.38,0,0,0,145,88,15.75,15.75,0,0,0,142,80.59a7.74,7.74,0,0,0-3.7-2.66,8.94,8.94,0,0,0-4.89-.25A12.14,12.14,0,0,0,128.51,80,13.7,13.7,0,0,0,124,85.67a14,14,0,0,0-1,7.06,13.13,13.13,0,0,0,2.65,6.61,7.32,7.32,0,0,0,3.1,2.47,2.85,2.85,0,0,0,3-.2q.47-.35.44-2.21a2.5,2.5,0,0,1,.79-2.07,1.91,1.91,0,0,1,1.67-.33,2.92,2.92,0,0,1,1.65,1.15,3,3,0,0,1,.6,2.57,4.14,4.14,0,0,1-1.65,2.4,6.78,6.78,0,0,1-5.55,1.19,8.51,8.51,0,0,1-5.38-3.43,15.31,15.31,0,0,1-3.09-7.73,16.48,16.48,0,0,1,1.17-8.2,15.63,15.63,0,0,1,5.1-6.57,13.6,13.6,0,0,1,6.44-2.81,12.06,12.06,0,0,1,6.49.91,13.53,13.53,0,0,1,5.44,4.37,23.82,23.82,0,0,1,3.38,6.82A25.09,25.09,0,0,1,157.49,89.8Zm-5.89,23.49q0,10.77.49,16.25a49,49,0,0,0,1.44,8.83,16.38,16.38,0,0,0,2.53,5.43,13.26,13.26,0,0,0,9.68,5.55A58.78,58.78,0,0,1,162.93,138a108.22,108.22,0,0,1-.8-14.18q-.1-11.76-.48-17a43.34,43.34,0,0,0-1.1-7.86,12.79,12.79,0,0,0-2-4.34A11.85,11.85,0,0,0,149.69,90Q151.18,96.71,151.6,113.29Z"/><text class="cls-4" transform="translate(122.4 217)">輔仁大學校友資料庫</text></g></svg>